<svg xmlns="http://www.w3.org/2000/svg" width="50" height="50" viewBox="0 0 50 50">
    <path style="text-indent:0;text-align:start;line-height:normal;text-transform:none;block-progression:tb;-inkscape-font-specification:Bitstream Vera Sans" d="M 5.8125 2 A 1.0001 1.0001 0 0 0 5 3 L 5 8 L 2.84375 8 C 1.2825007 8 0 9.2817454 0 10.84375 L 0 44.15625 C 0 45.718255 1.2825007 47 2.84375 47 L 19.53125 47 C 20.002309 47.731273 21.620879 50 25 50 C 28.379121 50 29.997691 47.731273 30.46875 47 L 47.15625 47 C 48.717499 47 50 45.718255 50 44.15625 L 50 10.84375 C 50 9.2817454 48.717499 8 47.15625 8 L 45 8 L 45 3 A 1.0001 1.0001 0 0 0 44 2 C 36.366667 2 31.439333 3.5425217 28.40625 5.125 C 26.889708 5.9162392 25.859478 6.6922126 25.1875 7.3125 C 25.106863 7.3869345 25.071551 7.4295665 25 7.5 C 24.928449 7.4295665 24.893137 7.3869345 24.8125 7.3125 C 24.140522 6.6922126 23.110292 5.9162392 21.59375 5.125 C 18.560667 3.5425217 13.633333 2 6 2 A 1.0001 1.0001 0 0 0 5.90625 2 A 1.0001 1.0001 0 0 0 5.8125 2 z M 7 4.0625 C 13.739122 4.1977507 18.074421 5.5279589 20.65625 6.875 C 22.014708 7.5837608 22.921978 8.3077874 23.46875 8.8125 C 23.896883 9.2076995 23.937582 9.3204119 24 9.40625 L 24 41.25 C 23.337016 40.885758 22.610549 40.47988 21.40625 40.0625 C 18.554953 39.07431 13.87872 38.161673 7 38.0625 L 7 4.0625 z M 43 4.0625 L 43 38.0625 C 36.12128 38.16167 31.445047 39.07431 28.59375 40.0625 C 27.389451 40.47988 26.662984 40.885758 26 41.25 L 26 9.40625 C 26.062418 9.3204119 26.103117 9.2076995 26.53125 8.8125 C 27.078022 8.3077874 27.985292 7.5837608 29.34375 6.875 C 31.925579 5.5279589 36.260878 4.1977507 43 4.0625 z M 2.84375 10 L 5 10 L 5 39 A 1.0001 1.0001 0 0 0 6 40 C 13.369117 40 18.021826 40.981152 20.78125 41.9375 C 22.160962 42.415674 23.041709 42.882609 23.59375 43.21875 C 24.024611 43.481104 24.184655 43.599786 24.25 43.65625 A 1.0001 1.0001 0 0 0 25.125 43.96875 A 1.0001 1.0001 0 0 0 25.15625 43.96875 A 1.0001 1.0001 0 0 0 25.59375 43.78125 A 1.0001 1.0001 0 0 0 25.8125 43.59375 C 25.918253 43.512128 26.096568 43.407317 26.40625 43.21875 C 26.958291 42.882609 27.839038 42.415674 29.21875 41.9375 C 31.978174 40.981152 36.630883 40 44 40 A 1.0001 1.0001 0 0 0 45 39 L 45 10 L 47.15625 10 C 47.633001 10 48 10.361755 48 10.84375 L 48 44.15625 C 48 44.638245 47.633001 45 47.15625 45 L 30 45 A 1.0011001 1.0011001 0 0 0 29.125 45.5 C 29.125 45.5 27.73234 48 25 48 C 22.26766 48 20.875 45.5 20.875 45.5 A 1.0011001 1.0011001 0 0 0 20 45 L 2.84375 45 C 2.3669993 45 2 44.638245 2 44.15625 L 2 10.84375 C 2 10.361755 2.3669993 10 2.84375 10 z" color="#000" overflow="visible" enable-background="accumulate" font-family="Bitstream Vera Sans"></path>
</svg>