<svg xmlns="http://www.w3.org/2000/svg" width="165" height="87" xmlns:xlink="http://www.w3.org/1999/xlink"><defs><rect id="a" width="50" height="43.246" x=".464" y=".072" rx="4"/><mask id="c" width="50" height="43.246" x="0" y="0" fill="#fff"><use xlink:href="#a"/></mask><rect id="b" width="88" height="43.246" y="9.051" rx="4"/><mask id="d" width="88" height="43.246" x="0" y="0" fill="#fff"><use xlink:href="#b"/></mask></defs><g fill="none" fill-rule="evenodd" transform="translate(-2 -1)"><g transform="rotate(30 57.577 216.964)"><path fill="#F0F0F0" d="M8.06 7.27h41v34.2h-41z"/><path stroke="#FFF" stroke-width="3" d="M3.37 17.73l23 12.07 23-12.07"/><path stroke="#BBB" stroke-width="3" d="M2.73 14.62l23 12.07 23-12.07"/><use stroke="#BCBCBC" stroke-width="8" mask="url(#c)" stroke-linecap="round" stroke-linejoin="round" xlink:href="#a"/></g><g transform="rotate(-11 200.263 -95.867)"><path fill="#FFF" d="M66.8 10.75h19v20.12h-19z"/><path fill="#78ACFF" d="M6.9 15.52h80v36.2h-80z"/><path stroke="#FFF" stroke-width="3" d="M1.62 26.11h83"/><use stroke="#4285F4" stroke-width="8" mask="url(#d)" stroke-linecap="round" stroke-linejoin="round" xlink:href="#b"/><path stroke="#4285F4" stroke-width="5" d="M29 10.06V0h33.02v10.06" stroke-linecap="round" stroke-linejoin="round"/><path stroke="#4285F4" stroke-width="3" d="M2 24.14h83"/><ellipse cx="45.772" cy="32.548" fill="#FFF" rx="3" ry="3.017"/><ellipse cx="44" cy="31.177" fill="#4782F4" rx="3" ry="3.017"/></g><path fill="#FC0" d="M34.23 28.04l4.91.87a4 4 0 0 0 4.65-3.25l2.45-13.9a4 4 0 0 0-3.25-4.64L9.52 1.22a4 4 0 0 0-4.64 3.25l-2.45 13.9A4 4 0 0 0 5.68 23l16.37 2.89 8.47 9.78c1.08 1.25 2.2.95 2.48-.68l1.23-6.96z"/><text fill="#FFF" font-family="Poppins" font-size="11" font-weight="bold" letter-spacing=".115" transform="rotate(10 -.207 32.107)"><tspan x="4.54" y="15.017">NEWS</tspan></text><ellipse cx="157.5" cy="26.149" fill="#FF5353" rx="9.5" ry="9.554"/><text fill="#FFF" transform="rotate(30 157 26.586)" font-family="Poppins-SemiBold, Poppins" font-size="14" font-weight="500" letter-spacing=".146"><tspan x="154.246" y="31.086">1</tspan></text></g></svg>